<svg xmlns="http://www.w3.org/2000/svg" viewBox="0 0 900 200">
  <defs>
    <linearGradient id="bg" x1="0%" y1="0%" x2="100%" y2="100%">
      <stop offset="0%" style="stop-color:#0D0D14;stop-opacity:1"/>
      <stop offset="100%" style="stop-color:#1a1a3e;stop-opacity:1"/>
    </linearGradient>
    <linearGradient id="glow" x1="0%" y1="0%" x2="100%" y2="0%">
      <stop offset="0%" style="stop-color:#00c8ff;stop-opacity:1"/>
      <stop offset="100%" style="stop-color:#7b2fff;stop-opacity:1"/>
    </linearGradient>
  </defs>
  <rect width="900" height="200" fill="url(#bg)" rx="12"/>
  <circle cx="120" cy="80" r="18" fill="#00c853" opacity="0.9"/>
  <circle cx="200" cy="60" r="14" fill="#0078ff" opacity="0.9"/>
  <circle cx="170" cy="130" r="12" fill="#b300ff" opacity="0.8"/>
  <circle cx="80" cy="120" r="10" fill="#00c853" opacity="0.7"/>
  <circle cx="250" cy="110" r="16" fill="#0078ff" opacity="0.8"/>
  <line x1="120" y1="80" x2="200" y2="60" stroke="#00c8ff" stroke-width="2" opacity="0.5"/>
  <line x1="120" y1="80" x2="170" y2="130" stroke="#00c8ff" stroke-width="2" opacity="0.5"/>
  <line x1="200" y1="60" x2="250" y2="110" stroke="#7b2fff" stroke-width="2" opacity="0.4"/>
  <line x1="80" y1="120" x2="120" y2="80" stroke="#00c853" stroke-width="1.5" opacity="0.4"/>
  <line x1="170" y1="130" x2="250" y2="110" stroke="#b300ff" stroke-width="1.5" opacity="0.4"/>
  <circle cx="145" cy="72" r="4" fill="#00ff88" opacity="0.9"/>
  <circle cx="185" cy="95" r="4" fill="#ffcc00" opacity="0.9"/>
  <circle cx="225" cy="85" r="4" fill="#ff4444" opacity="0.9"/>
  <text x="450" y="75" font-family="Segoe UI, Arial, sans-serif" font-size="48" font-weight="bold" fill="url(#glow)" text-anchor="middle">NetVision</text>
  <text x="450" y="110" font-family="Segoe UI, Arial, sans-serif" font-size="18" fill="#8888aa" text-anchor="middle">Real-Time Network Traffic Visualization</text>
  <text x="450" y="140" font-family="Segoe UI, Arial, sans-serif" font-size="14" fill="#555577" text-anchor="middle">Packet Capture | Dynamic Graph | Session Tracking | Replay System</text>
  <text x="450" y="170" font-family="Segoe UI, Arial, sans-serif" font-size="13" fill="#444466" text-anchor="middle">Developer: MERO:TG@QP4RM</text>
</svg>
